Frozen in 1996, Phoenix, a convicted killer is "thawed" out for parole well into the 21st century. 
Revived into a crime free society, Phoenix resumes his murderous rampage, and no one can stop him. 
Spartan, the cop who captured Phoenix in 1996 has also been cryogenically frozen, this time for a 
crime he didn't commit. In desperation they turn to Spartan to help recapture Phoenix.

General
Complete name                            : Demolition Man 1993 BRrip 480p x264-SmR.mp4
Format                                   : MPEG-4
Format profile                           : Base Media / Version 2
Codec ID                                 : mp42
File size                                : 595 MiB
Duration                                 : 1h 54mn
Overall bit rate mode                    : Variable
Overall bit rate                         : 724 Kbps
Movie name                               : Demolition Man
Performer                                : Sylvester Stallone, Wesley Snipes, Sandra Bullock, Nigel Hawthorne, Benjamin Bratt
Genre                                    : Action, Crime, Science Fiction
Recorded date                            : 1993

Video
ID                                       : 1
Format                                   : AVC
Format/Info                              : Advanced Video Codec
Format profile                           : High@L3.1
Format settings, CABAC                   : Yes
Format settings, ReFrames                : 6 frames
Codec ID                                 : avc1
Codec ID/Info                            : Advanced Video Coding
Duration                                 : 1h 53mn
Bit rate mode                            : Variable
Bit rate                                 : 566 Kbps
Width                                    : 848 pixels
Height                                   : 480 pixels
Display aspect ratio                     : 16:9
Frame rate mode                          : Variable
Frame rate                               : 23.976 fps
Minimum frame rate                       : 11.989 fps
Maximum frame rate                       : 23.981 fps
Color space                              : YUV
Chroma subsampling                       : 4:2:0
Bit depth                                : 8 bits
Scan type                                : Progressive
Bits/(Pixel*Frame)                       : 0.058
Stream size                              : 459 MiB (77%)
Writing library                          : x264 core 112

Audio
ID                                       : 2
Format                                   : AAC
Format/Info                              : Advanced Audio Codec
Format profile                           : LC
Codec ID                                 : 40
Duration                                 : 1h 54mn
Bit rate mode                            : Variable
Bit rate                                 : 160 Kbps
Maximum bit rate                         : 192 Kbps
Channel(s)                               : 2 channels
Channel positions                        : Front: L R
Sampling rate                            : 48.0 KHz
Compression mode                         : Lossy
Stream size                              : 132 MiB (22%)
Language                                 : English

Sample Incl.